<?xml version="1.0" encoding="utf-8"?>
<!-- Generator: Adobe Illustrator 25.3.0, SVG Export Plug-In . SVG Version: 6.00 Build 0)  -->
<svg version="1.1" id="Layer_1" xmlns="http://www.w3.org/2000/svg" xmlns:xlink="http://www.w3.org/1999/xlink" x="0px" y="0px"
	 viewBox="0 0 120 70" style="enable-background:new 0 0 120 70;" xml:space="preserve">
<style type="text/css">
	.st0{fill:#383838;}
</style>
<g>
	<polygon class="st0" points="23.56,18.65 25.27,18.65 25.27,26.82 29.36,26.82 29.36,28.39 23.56,28.39 	"/>
	<path class="st0" d="M34.83,24.43c-0.01-0.96-0.63-1.57-1.65-1.57c-0.97,0-1.56,0.62-1.68,1.57H34.83z M31.5,25.66
		c0.11,0.98,0.84,1.56,1.75,1.56c0.81,0,1.34-0.38,1.75-0.89l1.17,0.89c-0.76,0.95-1.73,1.33-2.76,1.33c-1.98,0-3.55-1.39-3.55-3.47
		c0-2.08,1.57-3.46,3.55-3.46c1.82,0,3.06,1.29,3.06,3.59v0.45H31.5z"/>
	<path class="st0" d="M40.94,27.07c1.2,0,1.91-0.95,1.91-1.98c0-1.03-0.72-1.98-1.91-1.98c-1.2,0-1.92,0.95-1.92,1.98
		C39.02,26.12,39.74,27.07,40.94,27.07 M42.88,27.39h-0.03c-0.47,0.8-1.33,1.16-2.24,1.16c-2.01,0-3.22-1.52-3.22-3.47
		c0-1.95,1.3-3.46,3.15-3.46c1.23,0,1.88,0.58,2.22,1h0.05v-4.63h1.63v10.39h-1.55V27.39z"/>
	<path class="st0" d="M50.65,24.43c-0.01-0.96-0.64-1.57-1.66-1.57c-0.96,0-1.56,0.62-1.68,1.57H50.65z M47.31,25.66
		c0.11,0.98,0.85,1.56,1.75,1.56c0.81,0,1.34-0.38,1.75-0.89l1.17,0.89c-0.76,0.95-1.73,1.33-2.76,1.33c-1.97,0-3.55-1.39-3.55-3.47
		c0-2.08,1.58-3.46,3.55-3.46c1.82,0,3.06,1.29,3.06,3.59v0.45H47.31z"/>
	<path class="st0" d="M57.01,23.62c-0.31-0.44-0.71-0.67-1.28-0.67c-0.43,0-0.95,0.21-0.95,0.7c0,1.18,3.52,0.22,3.52,2.79
		c0,1.57-1.49,2.12-2.81,2.12c-1,0-1.87-0.26-2.54-1.02l1.08-1.04c0.43,0.47,0.86,0.82,1.56,0.82c0.47,0,1.08-0.24,1.08-0.76
		c0-1.36-3.52-0.29-3.52-2.81c0-1.47,1.3-2.13,2.63-2.13c0.86,0,1.79,0.28,2.32,1L57.01,23.62z"/>
	<path class="st0" d="M59.23,21.78h1.55v1.03h0.03c0.29-0.62,0.91-1.2,1.99-1.2c1.01,0,1.7,0.4,2.04,1.22
		c0.48-0.84,1.17-1.22,2.15-1.22c1.74,0,2.35,1.25,2.35,2.83v3.94h-1.63v-3.74c0-0.82-0.25-1.54-1.21-1.54
		c-1.02,0-1.4,0.85-1.4,1.71v3.57h-1.63v-3.94c0-0.81-0.33-1.34-1.12-1.34c-1.06,0-1.5,0.8-1.5,1.68v3.6h-1.63V21.78z"/>
	<path class="st0" d="M74.83,25.43h-0.34c-0.9,0-2.44,0.07-2.44,1.01c0,0.6,0.6,0.87,1.14,0.87c1.11,0,1.64-0.59,1.64-1.52V25.43z
		 M74.92,27.48h-0.04c-0.46,0.74-1.22,1.07-2.09,1.07c-1.21,0-2.38-0.68-2.38-1.98c0-2.15,2.48-2.3,4.11-2.3h0.41V24.1
		c0-0.81-0.62-1.24-1.49-1.24c-0.68,0-1.31,0.28-1.74,0.69l-0.85-0.87c0.72-0.74,1.73-1.05,2.77-1.05c2.79,0,2.79,2.03,2.79,2.97
		v3.79h-1.47V27.48z"/>
	<path class="st0" d="M34.59,49.9c-1.33,1.61-3.06,2.38-4.99,2.38c-4.17,0-7.14-3.03-7.14-7.23c0-4.18,2.97-7.22,7.14-7.22
		c1.96,0,3.73,0.86,5.04,2.37l-1.41,1.08c-1.03-1.13-2.23-1.85-3.64-1.85c-3.32,0-5.38,2.53-5.38,5.61c0,3.09,2.05,5.62,5.38,5.62
		c1.46,0,2.72-0.77,3.64-1.9L34.59,49.9z"/>
	<path class="st0" d="M96.39,49.9c-1.32,1.61-3.05,2.38-4.99,2.38c-4.17,0-7.13-3.03-7.13-7.23c0-4.18,2.96-7.22,7.13-7.22
		c1.97,0,3.73,0.86,5.05,2.37l-1.41,1.08c-1.03-1.13-2.24-1.85-3.65-1.85c-3.32,0-5.37,2.53-5.37,5.61c0,3.09,2.05,5.62,5.37,5.62
		c1.47,0,2.73-0.77,3.65-1.9L96.39,49.9z"/>
	<path class="st0" d="M56.04,48.36c0.74,1.48,2.38,2.29,3.98,2.29c1.55,0,3.15-0.96,3.15-2.56c0-3.82-8.15-1.14-8.15-6.44
		c0-2.71,2.44-4,4.7-4c2.23,0,3.95,0.84,4.84,2.62l-1.6,0.96c-0.68-1.27-1.64-1.96-3.24-1.96c-1.28,0-2.92,0.79-2.92,2.23
		c0,3.76,8.16,0.85,8.16,6.47c0,2.86-2.36,4.31-4.97,4.31c-2.35,0-4.47-0.91-5.53-2.83L56.04,48.36z"/>
	<path class="st0" d="M67.55,48.36c0.74,1.48,2.38,2.29,3.98,2.29c1.55,0,3.15-0.96,3.15-2.56c0-3.82-8.15-1.14-8.15-6.44
		c0-2.71,2.44-4,4.7-4c2.23,0,3.96,0.84,4.85,2.62l-1.6,0.96c-0.69-1.27-1.64-1.96-3.24-1.96c-1.28,0-2.91,0.79-2.91,2.23
		c0,3.76,8.15,0.85,8.15,6.47c0,2.86-2.35,4.31-4.96,4.31c-2.35,0-4.47-0.91-5.54-2.83L67.55,48.36z"/>
	<path class="st0" d="M79.89,38.37h1.78v13.91h-1.78V38.37z M80.78,31.51c0.75,0,1.34,0.6,1.34,1.35c0,0.75-0.59,1.36-1.34,1.36
		c-0.74,0-1.34-0.61-1.34-1.36C79.44,32.11,80.04,31.51,80.78,31.51"/>
	<path class="st0" d="M48.38,45.17c-2.87,0-5.76,0.73-5.76,3.03c0,1.66,1.57,2.5,3.02,2.5c3.68,0,4.63-2.38,4.63-4.63v-0.91H48.38z
		 M51.84,46.28c0,2.62,0.05,4.11,0.26,5.65h-1.62c-0.11-0.67-0.17-1.43-0.17-2.19h-0.06c-0.98,1.72-2.42,2.54-4.66,2.54
		c-2.28,0-4.69-1.13-4.69-3.99c0-4.11,4.75-4.52,7.37-4.52h2.01v-0.82c0-2.33-1.61-3.26-3.74-3.26c-1.55,0-2.88,0.49-4.06,1.52
		l-1.01-1.2c1.26-1.22,3.34-1.89,5.07-1.89c3.23,0,5.3,1.46,5.3,4.87V46.28z"/>
	<rect x="36.45" y="30.25" class="st0" width="1.73" height="22.03"/>
</g>
</svg>
