<?xml version="1.0" encoding="utf-8"?>
<!-- Generator: Adobe Illustrator 25.3.0, SVG Export Plug-In . SVG Version: 6.00 Build 0)  -->
<svg version="1.1" id="Layer_1" xmlns="http://www.w3.org/2000/svg" xmlns:xlink="http://www.w3.org/1999/xlink" x="0px" y="0px"
	 viewBox="0 0 120 70" style="enable-background:new 0 0 120 70;" xml:space="preserve">
<style type="text/css">
	.st0{fill:#383838;}
</style>
<g>
	<path class="st0" d="M18.18,42.24l-0.56,1.33l-2.42,5.39H9.42l3.69-8.35C14.15,41.7,16.13,42.33,18.18,42.24 M30.49,43.04
		c1.48,0.88,2.71,2.19,3.53,4.12l0.77,1.79h0.17l0.01,0.02v-0.02h5.63L27.92,20.34H22.1l-6.7,15.18c0.91,0.5,3.69,0.81,5.47,0.53
		l4.14-9.69l4.87,11.29l0.93,2.08l0.69,1.59 M54.34,39.11c0,3.07-2.06,5.64-5.09,5.64c-3.15,0-4.81-2.33-4.81-5.39V28.8h-4.93v10.59
		c0,6.26,3.48,9.89,8.24,9.89c2.79,0,4.69-0.98,6.75-3.02L54.83,49h4.41V28.8h-4.89V39.11z M71.57,44.71
		c-1.53,0-2.59-0.94-2.59-2.87v-8.71h5.54v-4.29h-5.49v-5.72l-4.93,0.53v5.19h-3.72v4.29h3.72v8.71c0,5.03,2.83,7.53,7.15,7.36
		c1.49-0.04,2.67-0.28,4.08-0.86l-1.37-4.25C73.22,44.46,72.33,44.71,71.57,44.71 M95.97,38.9c0,5.81-3.92,10.51-10.38,10.51
		c-6.47,0-10.34-4.7-10.34-10.51c0-5.76,3.96-10.51,10.3-10.51C91.89,28.39,95.97,33.13,95.97,38.9 M91,38.9
		c0-3.02-2.1-5.97-5.41-5.97c-3.55,0-5.41,2.95-5.41,5.97c0,3.07,1.82,5.93,5.41,5.93C89.18,44.83,91,41.97,91,38.9 M107.89,28.27
		c-2.02,0-4.08,0.37-5.61,2.86l-0.36-2.33h-4.57v20.16h4.93V38.33c0-3.72,2.38-5.11,4.97-5.11c1.47,0,2.38,0.37,3.29,1.09v-5.6
		C109.72,28.44,108.81,28.27,107.89,28.27"/>
	<path class="st0" d="M31.49,41.31c-2.26-3.09-5.11-4.43-9.7-4.39c-2.47,0.02-3.87,0.02-5.22-0.22c-4.13-0.76-4.86-2.95-4.86-2.95
		s-0.89,3.06,1.08,5.51c1.05,1.3,2.99,2.32,6.16,2.16c5.74-0.28,10.02-0.11,13.27,3"/>
</g>
</svg>
