<?xml version="1.0" encoding="utf-8"?>
<!-- Generator: Adobe Illustrator 25.3.0, SVG Export Plug-In . SVG Version: 6.00 Build 0)  -->
<svg version="1.1" id="Layer_1" xmlns="http://www.w3.org/2000/svg" xmlns:xlink="http://www.w3.org/1999/xlink" x="0px" y="0px"
	 viewBox="0 0 120 70" style="enable-background:new 0 0 120 70;" xml:space="preserve">
<style type="text/css">
	.st0{fill:#383838;}
</style>
<g>
	<path class="st0" d="M73.79,29.64c-0.15,0.21-0.33,0.42-0.51,0.64c0,0-0.92,1.08-2.33,3.91c0,0-3.12,5.85-4.25,10.48
		c-0.2,0.79-0.46,1.4-0.46,1.4c-0.83,1.51-2.53,1.59-2.53,1.59c-1.53,0.26-1.36-0.99-1.36-0.99c0.08-1,0.5-2.19,0.88-3.39
		c1.98-6.34,4.82-12.26,6.48-15.11c0.78-1.32,1.27-1.91,1.27-1.91s0.65-0.9,1.57-0.81c0,0-0.01,0,0,0c0,0,1.71,0.17,1.46,3.37
		c0,0-0.17,0.63-0.21,0.76C73.8,29.61,73.79,29.62,73.79,29.64 M60.29,41.8c-0.14-0.16-1.13-0.2-1.13-0.2
		c-3.59-0.18-5.54-1.39-5.54-1.39c-0.32-0.18-0.49-0.27-0.9-0.58c0,0-0.05-0.22,0.03-0.32c1.3-1.43,2.66-2.69,3.89-3.85
		c3.24-3.06,5.23-4.5,5.61-4.77l0-0.01c0,0,1.26-0.95,1.54-1.23c0.24-0.24,1.42-2.67,1.16-3.5c-0.04-0.15,0-0.26-0.27-0.28
		c-0.94-0.06-2.42,0.84-2.42,0.84c-3.63,2.25-8.46,6.91-11.87,10.52c-0.22,0.22-0.4,0.04-0.4,0.04c-3.46-3.04-1.59-9.51-1.42-9.97
		c0.06-0.16,0.01-0.3-0.08-0.37c-0.17-0.12-0.51-0.01-0.51-0.01c-1.32,0.39-2.13,1.87-2.13,1.87s-3.66,6.3,0.98,12.01
		c0,0,0.15,0.2-0.02,0.39c-7.05,8.08-8.44,11.69-8.44,11.69s-1.04,2.22-0.17,3.1c0.07,0.05,0.15,0.12,0.43,0.05
		c0.45-0.12,1.99-0.54,2.64-1.4c0.41-0.53,2.87-4.73,5.96-8.77c0.03-0.04,0.06-0.08,0.09-0.12c0.59-0.77,1.21-1.53,1.84-2.27
		c0,0,0.27-0.27,0.47-0.18c0.14,0.1,0.27,0.2,0.41,0.29c0,0,2.57,1.83,5.62,2.21c0.82,0.1,1.66,0.12,2.43-0.01
		c0.5-0.17,1.66-0.8,2.38-3.18C60.45,42.4,60.64,41.99,60.29,41.8 M107.92,12.99c-7.72,0.09-17.49,2.1-17.49,2.1
		c-0.19,0.01-0.1-0.22-0.1-0.22c3.83-6.76,4.82-7.83,4.82-7.83c0.7-1.3-1.18-3.3-1.18-3.3c-0.27-0.28-0.63-0.26-0.92-0.16
		c-0.34,0.1-0.69,0.39-0.97,0.76C91.87,4.62,91.63,5,91.63,5s-0.47,0.67-2,3.36c-1.1,1.93-2.29,4.2-4.07,7.67
		c-0.16,0.36-0.46,0.42-0.46,0.42c-2.72,0.7-4.14,1.15-4.14,1.15c-1.49,0.47-2.27,0.89-2.27,0.89s-0.68,0.38-1.38,1.33
		c-0.72,0.96-1.26,1.74-1.1,2.37c0.1,0.31,0.4,0.67,1.23,0.42c0.92-0.28,3.78-1.23,5.08-1.53c0,0,0.36-0.05,0.21,0.2
		c-1.48,2.98-3.04,6.06-4.81,10.04c0,0-7.26,15.86-6.37,19.65c0,0,0.17,1.38,2.01,0.59c0,0,2.24-0.6,3.2-2.62
		c0.22-0.47-0.31-1.49-0.31-1.49c-1.32-2.93,4.97-15.4,4.97-15.4c2.29-4.91,4.36-8.96,6.07-12.2c0.13-0.28,0.42-0.37,0.42-0.37
		c0.6-0.15,1.22-0.32,1.88-0.49c0,0,13.44-3.29,21.52-3.84c0.05-0.01,0.11-0.02,0.17-0.02c1.03-0.1,1.07-0.38,1.07-0.38
		c0.36-0.7-0.85-1.14-2.12-1.42C108.79,12.98,107.92,12.99,107.92,12.99 M104.41,21.83c-1.85-0.98-4.43-0.82-4.43-0.82
		c-2.46,0.12-4.51,0.83-6.7,2c-3.62,1.95-5.08,4.24-5.08,4.24c-1.16,1.72-0.45,1.98,0.04,2c0.46-0.03,1.22-0.42,1.22-0.42
		c5.88-4.04,9.39-3.84,10.07-3.76c0.72,0.05,1.47,0.27,2.09,0.75c0,0,2.46,1.89-0.53,7.1c-4.05,7.03-9.09,7.78-9.09,7.78
		c-4.94,0.82-3.52-3.98-3.52-3.98c0.7-2.61,1.99-4.84,3.23-6.55c0.02-0.04,0.05-0.09,0.08-0.12c0.44-0.58,0.1-0.78-0.18-0.85
		c-0.22-0.07-0.5-0.02-0.58,0c-1.43,0.3-2.73,1.44-3.73,2.51c-1.12,1.2-1.8,2.41-1.8,2.41s-0.76,1.2-1.2,2.53
		c-0.36,1.06-0.6,2.16-0.62,3.3c0,0-0.18,1.97,1.1,3.34c1,1.08,2.95,1.76,6.2,1.16c0,0,2.32-0.41,4.99-1.84
		c3.74-2.01,8.39-6.07,10.44-12.43C107.95,25.38,106.38,22.87,104.41,21.83 M34.23,66.6c0,0,0.64,0.05,3.32-0.73
		c2.99-0.88,23.95-7.86,51-9.05c0,0,2.93-0.07,2.47-0.72c-0.12-0.11-0.3-0.23-0.53-0.37c-0.01,0-0.02-0.01-0.03-0.02
		c-0.07-0.03-0.14-0.07-0.2-0.09c-1.13-0.56-3.39-1.12-7.86-0.98c0,0-4.72-0.05-12.48,0.72c-6.95,0.68-18.71,2.39-27.19,4.3
		c-4.07,0.91-9.19,2.35-11.42,3.27c0,0-2.19,0.9,0.31,2.59c0,0,1.02,0.74,2.47,1.08C34.17,66.59,34.23,66.6,34.23,66.6 M40.3,29.23
		c-11-0.66-11.29-2.41-11.29-2.41c-0.54-1.55,4.63-4.11,4.63-4.11c0.46-0.24,0.92-0.44,1.37-0.64c1.3-0.65,6.45-2.95,15.31-4.55
		c0,0,0.28-0.03,0.55-0.15c0.54-0.26,1.66-0.82,1.66-1.19c-0.01-0.31-0.22-0.46-0.93-0.67c-0.1-0.03-0.12-0.04-0.27-0.07
		c-0.46-0.09-1.05-0.15-1.83-0.14c0,0-3.59-0.1-8.38,1.15c-4.57,1.2-10.83,3.44-15.68,7.53c0,0-3.18,2.65-2.22,4.57
		c0,0,0.66,1.71,4.85,2.1c0,0,2.86,0.4,2.89,0.94c0,0,0.12,0.3-1.17,0.6c0,0-15.12,3.8-18.68,12.97c0,0-3.86,9.08,8.86,10.08
		c0,0,3.7,0.22,7.45-1.16c5.35-1.95,7.67-4.09,8.8-5.16c2.5-2.52,3.36-5.06,2.48-5.13c-0.18-0.01-0.36,0.07-0.56,0.23
		c-1.73,1.51-4.75,3.3-4.75,3.3c-5.19,3.39-11.54,3.18-11.54,3.18c-7.91-0.42-4.95-5.93-4.95-5.93
		c4.36-8.47,20.06-11.03,20.06-11.03c2.95-0.33,4.06-2.49,4.06-2.49C42.39,29.17,40.3,29.23,40.3,29.23"/>
	<path class="st0" d="M34.22,66.6c0,0,0.64,0.05,3.32-0.74c2.99-0.88,23.95-7.86,51-9.05c0,0,2.93-0.07,2.47-0.72
		c-0.12-0.11-0.3-0.24-0.53-0.37c-0.01-0.01-0.02-0.01-0.03-0.02c-0.07-0.04-0.14-0.07-0.2-0.1c-1.13-0.56-3.39-1.12-7.86-0.98
		c0,0-4.72-0.05-12.48,0.72c-6.95,0.68-18.71,2.39-27.19,4.3c-4.07,0.91-9.19,2.35-11.42,3.27c0,0-2.2,0.91,0.3,2.59
		c0,0,1.03,0.74,2.47,1.08C34.17,66.59,34.22,66.6,34.22,66.6"/>
	<path class="st0" d="M79.85,8.28c-0.74,0-1.75,0.53-2.53,1.25c-0.48,0.44-1.07,1.01-1.59,1.8c-0.61,0.92-1.21,2.21-1.04,3.39
		c0,0,0.07,0.41,0.32,0.73c0.3,0.41,0.86,0.72,1.88,0.38c0,0,0.79-0.26,1.16-0.78c0.15-0.22-0.29-0.12-0.46-0.12
		c-0.87,0.02-1.3-0.2-1.3-0.5c0.14,0.04,0.3,0.07,0.48,0.07c1.29,0,3.02-1.39,3.88-3.11C81.48,9.67,81.13,8.28,79.85,8.28"/>
	<path class="st0" d="M52.76,11.4c2.67-1.09,3.46-4.23,3.49-5.26c0.02-0.47-0.13-0.66-0.31-0.74c-0.25-0.11-0.55,0.02-0.7,0.11
		c-0.61,0.37-1.33,0.84-3.08,1.93c-5.37,3.34-10.06,3.9-10.06,3.9c-0.47,0.06-0.61,0.16-0.64,0.36c-0.08,0.43,0.72,1.09,2.69,1.07
		c0,0,1.62,0.09,4.04-0.29c1.22-0.19,2.89-0.57,4.49-1.03C52.69,11.43,52.72,11.41,52.76,11.4"/>
	<path class="st0" d="M111.64,21.08c0,1.08-0.85,1.92-1.96,1.92c-1.1,0-1.96-0.84-1.96-1.92c0-1.08,0.85-1.92,1.96-1.92
		C110.79,19.16,111.64,20,111.64,21.08 M108.03,21.08c0,0.92,0.7,1.64,1.65,1.64c0.95,0,1.65-0.72,1.65-1.64
		c0-0.93-0.71-1.65-1.65-1.65C108.73,19.43,108.03,20.16,108.03,21.08 M109.25,22.19h-0.28v-2.22h0.87c0.51,0,0.74,0.22,0.74,0.62
		c0,0.39-0.26,0.56-0.57,0.62l0.68,0.98h-0.33l-0.64-0.98h-0.47V22.19z M109.62,20.97c0.34,0,0.68,0,0.68-0.38
		c0-0.31-0.26-0.38-0.53-0.38h-0.51v0.76H109.62z"/>
</g>
</svg>
