<?xml version="1.0" encoding="utf-8"?>
<!-- Generator: Adobe Illustrator 25.3.0, SVG Export Plug-In . SVG Version: 6.00 Build 0)  -->
<svg version="1.1" id="Layer_1" xmlns="http://www.w3.org/2000/svg" xmlns:xlink="http://www.w3.org/1999/xlink" x="0px" y="0px"
	 viewBox="0 0 120 70" style="enable-background:new 0 0 120 70;" xml:space="preserve">
<style type="text/css">
	.st0{fill:#383838;}
</style>
<g>
	<polygon class="st0" points="39.49,44.39 39.49,29.52 42.63,29.52 42.63,41.36 47.94,41.36 47.94,44.39 	"/>
	<path class="st0" d="M57.74,42.63c-0.97,1.27-2.56,2.01-4.12,2.01c-3.02,0-5.43-2.1-5.43-5.35c0-3.25,2.41-5.36,5.43-5.36
		c2.82,0,4.58,2.11,4.58,5.36v0.98h-6.99c0.24,1.2,1.11,1.98,2.27,1.98c0.98,0,1.65-0.52,2.15-1.24L57.74,42.63z M55.18,38.13
		c0.03-1.05-0.76-1.93-1.85-1.93c-1.33,0-2.06,0.95-2.13,1.93H55.18z"/>
	<path class="st0" d="M69.29,44.39h-2.77v-1.35h-0.05c-0.46,0.73-1.62,1.6-2.99,1.6c-2.9,0-4.81-2.18-4.81-5.27
		c0-2.84,1.69-5.44,4.46-5.44c1.25,0,2.42,0.36,3.1,1.34h0.04v-5.75h3.02V44.39z M64.1,36.71c-1.51,0-2.41,1.04-2.41,2.58
		c0,1.52,0.9,2.58,2.41,2.58c1.51,0,2.42-1.05,2.42-2.58C66.52,37.75,65.61,36.71,64.1,36.71"/>
	<path class="st0" d="M79.35,42.63c-0.96,1.27-2.55,2.01-4.12,2.01c-3.02,0-5.44-2.1-5.44-5.35c0-3.25,2.42-5.36,5.44-5.36
		c2.81,0,4.59,2.11,4.59,5.36v0.98h-7c0.24,1.2,1.11,1.98,2.27,1.98c0.99,0,1.65-0.52,2.16-1.24L79.35,42.63z M76.8,38.13
		c0.01-1.05-0.76-1.93-1.85-1.93c-1.34,0-2.06,0.95-2.14,1.93H76.8z"/>
	<path class="st0" d="M88.02,35.27c-0.9-1-2.34-1.34-3.61-1.34c-2.06,0-4.11,1.05-4.11,3.45c0,3.88,5.09,2.49,5.09,4.14
		c0,0.54-0.69,0.73-1.37,0.73c-0.9,0-1.57-0.39-2.13-1.11l-1.83,2.12c0.97,1.03,2.48,1.39,3.85,1.39c2.09,0,4.5-0.75,4.5-3.36
		c0-3.88-5.09-2.61-5.09-4.11c0-0.61,0.61-0.84,1.11-0.84c0.72,0,1.31,0.29,1.76,0.86L88.02,35.27z"/>
	<path class="st0" d="M88.95,44.39h3.03v-5.08c0-1.33,0.24-2.6,1.8-2.6c1.39,0,1.35,1.53,1.35,2.28v5.4h3.02v-5.4
		c0-1.26,0.44-2.28,1.83-2.28c0.98,0,1.34,0.8,1.34,1.74v5.94h3.01v-6.02c0-2.48-0.81-4.43-3.47-4.43c-1.44,0-2.39,0.53-3.09,1.82
		c-0.52-1.24-1.65-1.82-3.02-1.82c-1.47,0-2.46,0.84-2.85,1.64h-0.04v-1.38h-2.9V44.39z"/>
	<path class="st0" d="M111.48,43.1h-0.04c-0.66,1.1-1.87,1.54-3.1,1.54c-1.83,0-3.48-1.1-3.48-3.15c0-3.53,4.11-3.59,6.62-3.59
		c0-1.11-0.89-1.83-1.93-1.83c-0.98,0-1.81,0.46-2.46,1.21l-1.61-1.71c1.11-1.1,2.72-1.64,4.31-1.64c3.52,0,4.47,1.87,4.47,5.27
		v5.18h-2.78V43.1z M110.74,39.91c-0.93,0-2.98,0.09-2.98,1.47c0,0.75,0.76,1.11,1.43,1.11c1.18,0,2.29-0.65,2.29-1.92v-0.67H110.74
		z"/>
	<path class="st0" d="M18.62,37.68l8.02,4.84l0.6-0.37v-0.74l-6.9-4.02l2.59-1.56l6.8,4.08v3.73l-3.09,1.86l-14.8-8.94l-4.33,2.63
		v5.19l4.31,2.6l4.91-2.96l-1.22-0.73l-3.69,2.22l-3.09-1.86v-3.73l3.09-1.85l14.82,8.92l4.33-2.6v-5.2l-6.8-4.1l2.48-1.48
		l6.79,4.09v8.19l-6.79,4.09l-7.42-4.45l-7.4,4.45l-6.79-4.09V37.7l7.38-4.51l0.02-9.06l6.79-4.09l6.79,4.09v8.19l-2.47,1.48v-8.18
		l-4.32-2.6l-4.32,2.6v9.85l1.23,0.73v-9.75l3.09-1.95l3.08,1.86v8.18l-2.48,1.49v-8.16l-0.61-0.37l-0.63,0.41L18.62,37.68z
		 M11.15,41.39v0.8l0.67,0.41l0.67-0.41v-0.8l-0.67-0.41L11.15,41.39z"/>
</g>
</svg>
