<?xml version="1.0" encoding="utf-8"?>
<!-- Generator: Adobe Illustrator 25.3.0, SVG Export Plug-In . SVG Version: 6.00 Build 0)  -->
<svg version="1.1" id="Layer_1" xmlns="http://www.w3.org/2000/svg" xmlns:xlink="http://www.w3.org/1999/xlink" x="0px" y="0px"
	 viewBox="0 0 120 70" style="enable-background:new 0 0 120 70;" xml:space="preserve">
<style type="text/css">
	.st0{fill:#383838;}
</style>
<g>
	<path class="st0" d="M25.57,44.3c-1.89,0.56-4.85,1.26-7.95,1.26c-3.39,0-6.15-0.8-8.2-2.46c-1.97-1.59-3.09-4.06-3.09-6.91
		c0-4.19,1.89-7.82,5.02-10.24c2.77-2.1,6.56-3.26,10.82-3.26c3.21,0,5.58,0.57,6.52,0.99l-1.57,4.06
		c-1.13-0.46-3.03-0.93-5.21-0.93c-2.44,0-4.63,0.64-6.27,1.8c-2.11,1.53-3.53,4.19-3.53,7.25c0,3.76,2.44,5.66,6.3,5.66
		c1.2,0,2.08-0.17,2.66-0.4l0.98-4.72h-3.79l0.51-2.45c0,0,0.21-1.37,1.84-1.37h7.38L25.57,44.3z"/>
	<path class="st0" d="M32.64,22.91h5.25L34.1,41.14h9.44l-0.58,2.72c0,0-0.27,1.47-2,1.47H27.97L32.64,22.91z"/>
	<path class="st0" d="M66.82,31.89c0,4.09-1.57,8.04-4.38,10.58c-2.3,2.03-5.39,3.23-9.07,3.23c-6.38,0-9.95-4.13-9.95-9.35
		c0-4.05,1.64-8.08,4.51-10.6c2.3-2,5.43-3.19,8.96-3.19C63.39,22.55,66.82,26.54,66.82,31.89 M52.06,28.23
		C50.09,29.99,49,33.49,49,36.18c0,3.16,1.57,5.52,5.14,5.52c1.53,0,2.99-0.63,4.11-1.63c1.93-1.76,2.99-5.45,2.99-8.05
		c0-2.8-1.09-5.48-4.95-5.48C54.65,26.54,53.19,27.17,52.06,28.23"/>
	<path class="st0" d="M70.86,23.35c1.64-0.37,4.12-0.6,6.56-0.6c2.33,0,4.74,0.33,6.45,1.3c1.6,0.86,2.73,2.29,2.73,4.39
		c0,3.32-2.44,5.39-5.57,6.32v0.13c1.46,0.57,2.08,2.06,2.33,4.09c0.29,2.49,0.51,5.42,0.95,6.35h-5.39
		c-0.22-0.6-0.47-2.53-0.73-5.29c-0.22-2.73-1.24-3.56-3.32-3.56h-1.6l-1.82,8.84h-5.21L70.86,23.35z M74.03,32.89h2.19
		c2.84,0,4.92-1.57,4.92-3.76c0-1.79-1.68-2.59-3.75-2.59c-0.99,0-1.6,0.06-2.04,0.17L74.03,32.89z"/>
	<polygon class="st0" points="95.45,22.91 90.79,45.33 85.54,45.33 90.21,22.91 	"/>
	<path class="st0" d="M100.59,39.51l-2.91,5.82H92.1l11.95-22.41h6.74l2.88,22.41H110c-1.99,0-1.97-1.57-1.97-1.57l-0.37-4.24
		H100.59z M107.44,35.85l-0.47-4.82c-0.11-1.23-0.26-3.03-0.37-4.39h-0.07c-0.62,1.36-1.31,3.09-1.97,4.39l-2.44,4.82H107.44z"/>
</g>
</svg>
