<?xml version="1.0" encoding="utf-8"?>
<!-- Generator: Adobe Illustrator 25.3.0, SVG Export Plug-In . SVG Version: 6.00 Build 0)  -->
<svg version="1.1" id="Layer_1" xmlns="http://www.w3.org/2000/svg" xmlns:xlink="http://www.w3.org/1999/xlink" x="0px" y="0px"
	 viewBox="0 0 120 70" style="enable-background:new 0 0 120 70;" xml:space="preserve">
<style type="text/css">
	.st0{fill:#383838;}
</style>
<g>
	<path class="st0" d="M14.32,42.43c0-2.51-2.15-4.6-4.85-4.6c-3.96,0-5.08,3.86-5.08,4.6H14.32z M15.71,48.04
		c-1.42,2.14-3.57,3.03-6.05,3.03c-4.27,0-7.09-3.1-7.09-7.48c0-4.23,2.91-7.42,7-7.42c4.3,0,6.57,3.34,6.57,6.62v1.28H4.39
		c0,1.53,1.06,5.34,5.3,5.34c1.85,0,3.79-0.98,4.69-2.52L15.71,48.04z"/>
	<polygon class="st0" points="22.55,43.04 17.56,36.55 19.89,36.55 23.76,41.91 27.61,36.55 29.88,36.55 24.95,43.04 30.94,50.7 
		28.58,50.7 23.71,44.3 18.92,50.7 16.74,50.7 	"/>
	<path class="st0" d="M43.29,42.43c0-2.51-2.15-4.6-4.84-4.6c-3.97,0-5.09,3.86-5.09,4.6H43.29z M44.68,48.04
		c-1.43,2.14-3.57,3.03-6.05,3.03c-4.26,0-7.09-3.1-7.09-7.48c0-4.23,2.91-7.42,6.99-7.42c4.3,0,6.57,3.34,6.57,6.62v1.28H33.36
		c0,1.53,1.06,5.34,5.3,5.34c1.85,0,3.78-0.98,4.69-2.52L44.68,48.04z"/>
	<path class="st0" d="M59.67,48.62c-1.36,1.66-3.15,2.45-5.15,2.45c-4.3,0-7.36-3.12-7.36-7.44c0-4.32,3.06-7.45,7.36-7.45
		c2.02,0,3.85,0.89,5.21,2.45l-1.45,1.11c-1.06-1.17-2.3-1.9-3.75-1.9c-3.42,0-5.54,2.6-5.54,5.8c0,3.19,2.12,5.79,5.54,5.79
		c1.51,0,2.82-0.8,3.75-1.96L59.67,48.62z"/>
	<path class="st0" d="M73.14,46.72c0,1.04,0.15,3.25,0.15,3.98h-1.82c-0.03-1.03-0.06-2.2-0.12-2.48h-0.09
		c-0.72,1.57-2.51,2.85-4.78,2.85c-4.36,0-5.33-3-5.33-6.1v-8.42h1.82v8.33c0,2.3,0.63,4.54,3.51,4.54c2.69,0,4.84-1.9,4.84-5.79
		v-7.08h1.82V46.72z"/>
	<path class="st0" d="M83.76,38.2h-4v9.22c0,1.26,0.73,1.99,1.94,1.99c0.69,0,1.42-0.21,2.06-0.49l0.15,1.66
		c-0.66,0.24-1.67,0.49-2.36,0.49c-2.6,0-3.6-1.63-3.6-3.65V38.2h-3.03v-1.66h3.03v-4.08h1.82v4.08h4V38.2z"/>
	<path class="st0" d="M86.1,36.54h1.82V50.7H86.1V36.54z M87,29.56c0.76,0,1.36,0.62,1.36,1.38c0,0.77-0.61,1.38-1.36,1.38
		c-0.75,0-1.36-0.61-1.36-1.38C85.65,30.17,86.25,29.56,87,29.56"/>
	<polygon class="st0" points="89.88,36.55 91.94,36.55 96.6,48.71 101.14,36.55 102.98,36.55 97.48,50.7 95.6,50.7 	"/>
	<path class="st0" d="M115.61,42.43c0-2.51-2.16-4.6-4.84-4.6c-3.97,0-5.09,3.86-5.09,4.6H115.61z M117,48.04
		c-1.42,2.14-3.57,3.03-6.06,3.03c-4.27,0-7.09-3.1-7.09-7.48c0-4.23,2.91-7.42,6.99-7.42c4.3,0,6.57,3.34,6.57,6.62v1.28h-11.75
		c0,1.53,1.05,5.34,5.29,5.34c1.85,0,3.78-0.98,4.69-2.52L117,48.04z"/>
	<polygon class="st0" points="3.24,19.57 5.04,19.57 5.04,28.16 9.34,28.16 9.34,29.81 3.24,29.81 	"/>
	<path class="st0" d="M15.1,25.64c-0.01-1.02-0.67-1.65-1.75-1.65c-1.01,0-1.64,0.66-1.77,1.65H15.1z M11.58,26.94
		c0.12,1.03,0.89,1.65,1.84,1.65c0.85,0,1.41-0.41,1.84-0.94l1.23,0.94c-0.8,1-1.82,1.39-2.9,1.39c-2.07,0-3.73-1.46-3.73-3.64
		c0-2.19,1.66-3.65,3.73-3.65c1.91,0,3.22,1.37,3.22,3.77v0.48H11.58z"/>
	<path class="st0" d="M21.51,28.42c1.26,0,2.01-1,2.01-2.08c0-1.09-0.76-2.08-2.01-2.08c-1.26,0-2.01,1-2.01,2.08
		C19.5,27.42,20.26,28.42,21.51,28.42 M23.56,28.76h-0.03c-0.5,0.84-1.4,1.22-2.36,1.22c-2.11,0-3.38-1.59-3.38-3.64
		c0-2.05,1.35-3.64,3.31-3.64c1.29,0,1.97,0.61,2.33,1.06h0.04v-4.87h1.71v10.93h-1.63V28.76z"/>
	<path class="st0" d="M31.73,25.64c-0.01-1.02-0.67-1.65-1.74-1.65c-1.02,0-1.65,0.66-1.78,1.65H31.73z M28.21,26.94
		c0.11,1.03,0.89,1.65,1.84,1.65c0.86,0,1.42-0.41,1.84-0.94l1.23,0.94c-0.8,1-1.82,1.39-2.9,1.39c-2.07,0-3.73-1.46-3.73-3.64
		c0-2.19,1.66-3.65,3.73-3.65c1.92,0,3.22,1.37,3.22,3.77v0.48H28.21z"/>
	<path class="st0" d="M38.41,24.79c-0.33-0.46-0.76-0.71-1.34-0.71c-0.46,0-1,0.22-1,0.74c0,1.24,3.7,0.23,3.7,2.93
		c0,1.65-1.56,2.23-2.96,2.23c-1.06,0-1.97-0.28-2.67-1.07l1.14-1.09c0.45,0.49,0.9,0.86,1.63,0.86c0.5,0,1.15-0.25,1.15-0.8
		c0-1.43-3.7-0.3-3.7-2.95c0-1.55,1.37-2.24,2.75-2.24c0.91,0,1.88,0.29,2.44,1.06L38.41,24.79z"/>
	<path class="st0" d="M40.74,22.86h1.64v1.08h0.03c0.3-0.65,0.95-1.26,2.1-1.26c1.06,0,1.79,0.42,2.15,1.29
		c0.5-0.88,1.23-1.29,2.25-1.29c1.83,0,2.47,1.32,2.47,2.98v4.13h-1.71v-3.93c0-0.87-0.26-1.62-1.27-1.62
		c-1.08,0-1.47,0.9-1.47,1.79v3.76H45.2v-4.13c0-0.86-0.34-1.42-1.18-1.42c-1.12,0-1.57,0.84-1.57,1.76v3.79h-1.72V22.86z"/>
	<path class="st0" d="M57.14,26.69h-0.36c-0.94,0-2.57,0.07-2.57,1.07c0,0.63,0.64,0.91,1.2,0.91c1.17,0,1.73-0.63,1.73-1.59V26.69z
		 M57.24,28.85H57.2c-0.49,0.78-1.29,1.13-2.2,1.13c-1.28,0-2.5-0.71-2.5-2.08c0-2.26,2.6-2.42,4.31-2.42h0.43v-0.19
		c0-0.85-0.66-1.3-1.57-1.3c-0.71,0-1.37,0.29-1.83,0.72l-0.9-0.91c0.76-0.78,1.83-1.12,2.92-1.12c2.92,0,2.92,2.14,2.92,3.13v3.99
		h-1.54V28.85z"/>
</g>
</svg>
