<?xml version="1.0" encoding="utf-8"?>
<!-- Generator: Adobe Illustrator 25.3.0, SVG Export Plug-In . SVG Version: 6.00 Build 0)  -->
<svg version="1.1" id="Layer_1" xmlns="http://www.w3.org/2000/svg" xmlns:xlink="http://www.w3.org/1999/xlink" x="0px" y="0px"
	 viewBox="0 0 120 70" style="enable-background:new 0 0 120 70;" xml:space="preserve">
<style type="text/css">
	.st0{fill:#383838;}
</style>
<g>
	<polygon class="st0" points="18.8,12.66 20.37,12.66 20.37,18.36 23.08,18.36 23.08,19.83 18.8,19.83 	"/>
	<path class="st0" d="M26.74,16.8c0.01-0.51-0.38-0.93-0.92-0.93c-0.67,0-1.03,0.46-1.07,0.93H26.74z M28.01,18.97
		c-0.49,0.62-1.28,0.97-2.06,0.97c-1.51,0-2.71-1.02-2.71-2.59c0-1.58,1.2-2.59,2.71-2.59c1.4,0,2.29,1.02,2.29,2.59v0.48h-3.5
		c0.12,0.58,0.56,0.96,1.13,0.96c0.5,0,0.83-0.25,1.08-0.6L28.01,18.97z"/>
	<path class="st0" d="M31.19,16.11c-0.75,0-1.2,0.51-1.2,1.25c0,0.74,0.45,1.25,1.2,1.25c0.75,0,1.2-0.51,1.2-1.25
		C32.39,16.61,31.94,16.11,31.19,16.11 M33.78,19.83h-1.39v-0.65h-0.02c-0.23,0.36-0.81,0.77-1.49,0.77c-1.45,0-2.41-1.06-2.41-2.55
		c0-1.37,0.85-2.63,2.23-2.63c0.62,0,1.21,0.17,1.55,0.65h0.01v-2.76h1.51V19.83z"/>
	<path class="st0" d="M37.61,16.8c0.01-0.51-0.38-0.93-0.92-0.93c-0.66,0-1.03,0.46-1.06,0.93H37.61z M38.88,18.97
		c-0.48,0.62-1.28,0.97-2.06,0.97c-1.51,0-2.71-1.02-2.71-2.59c0-1.58,1.2-2.59,2.71-2.59c1.41,0,2.29,1.02,2.29,2.59v0.48h-3.5
		c0.12,0.58,0.55,0.96,1.13,0.96c0.49,0,0.82-0.25,1.08-0.6L38.88,18.97z"/>
	<path class="st0" d="M42.29,16.34c-0.22-0.27-0.51-0.42-0.87-0.42c-0.25,0-0.55,0.11-0.55,0.41c0,0.73,2.54,0.11,2.54,1.99
		c0,1.26-1.2,1.63-2.25,1.63c-0.69,0-1.44-0.17-1.92-0.67l0.91-1.03c0.28,0.34,0.61,0.54,1.07,0.54c0.34,0,0.68-0.09,0.68-0.35
		c0-0.79-2.54-0.12-2.54-2c0-1.16,1.02-1.67,2.05-1.67c0.64,0,1.36,0.16,1.81,0.65L42.29,16.34z"/>
	<path class="st0" d="M43.74,14.89h1.45v0.67h0.02c0.2-0.39,0.7-0.79,1.43-0.79c0.68,0,1.24,0.28,1.51,0.88
		c0.35-0.63,0.82-0.88,1.54-0.88c1.33,0,1.73,0.94,1.73,2.14v2.92h-1.5v-2.88c0-0.46-0.17-0.84-0.67-0.84
		c-0.69,0-0.91,0.5-0.91,1.11v2.61h-1.51v-2.61c0-0.36,0.02-1.11-0.67-1.11c-0.78,0-0.9,0.62-0.9,1.26v2.46h-1.51V14.89z"/>
	<path class="st0" d="M54.64,17.66c-0.46,0-1.49,0.04-1.49,0.71c0,0.36,0.38,0.54,0.71,0.54c0.6,0,1.14-0.32,1.14-0.93v-0.32H54.64z
		 M55.01,19.21h-0.02c-0.33,0.53-0.93,0.74-1.55,0.74c-0.91,0-1.73-0.53-1.73-1.52c0-1.71,2.05-1.74,3.3-1.74
		c0-0.54-0.44-0.89-0.96-0.89c-0.49,0-0.9,0.22-1.23,0.59l-0.8-0.83c0.56-0.53,1.36-0.8,2.15-0.8c1.76,0,2.23,0.91,2.23,2.55v2.51
		h-1.39V19.21z"/>
	<path class="st0" d="M43.05,24.89h-5.08c-0.46,0-0.8,0.41-0.8,0.85V41.7h-0.04L20.24,24.44h-1.06c-0.42,0-0.81,0.36-0.81,0.81
		l0.04,30.26c0,0.45,0.38,0.85,0.8,0.85h5.04c0.47,0,0.81-0.41,0.81-0.85V38.73h0.04l16.72,17.85c0.08,0.09,0.42,0.22,0.55,0.22
		h0.68c0.42,0,0.8-0.36,0.8-0.81V25.74C43.86,25.29,43.47,24.89,43.05,24.89"/>
	<path class="st0" d="M67.98,51.68l1.52,3.55c0.38,0.85,0.72,1.13,1.48,1.13h4.7c0.64,0,0.97-0.59,0.72-1.17L63.16,24.93
		c-0.13-0.27-0.42-0.49-0.72-0.49h-0.42c-0.3,0-0.59,0.22-0.72,0.49l-7.57,17.29c-4.85-0.46-8.01,0.08-8.01,0.08
		c-0.42,0.05-0.82,0.32-0.75,0.46c0.06,0.14,0.47,0.25,0.47,0.25c2.4,0.25,4.91,0.76,7.34,1.37l-4.73,10.8
		c-0.25,0.58,0.08,1.17,0.72,1.17h4.66c0.85,0,1.31-0.54,1.52-1.08l1.52-3.6l2.3-5.53c4.74,1.58,8.21,3.13,8.21,3.13 M63.19,44.18
		c-1.1-0.36-2.16-0.65-3.2-0.91l2.19-5.12h0.04l2.91,6.71C64.48,44.61,63.83,44.39,63.19,44.18"/>
	<path class="st0" d="M100.15,24.89H75.67c-0.46,0-0.8,0.41-0.8,0.85v4.9c0,0.45,0.34,0.86,0.8,0.86h8.88V55.5
		c0,0.45,0.38,0.85,0.8,0.85h5.08c0.42,0,0.8-0.41,0.8-0.85V31.5h8.92c0.46,0,0.8-0.41,0.8-0.86v-4.9
		C100.96,25.29,100.62,24.89,100.15,24.89"/>
</g>
</svg>
