<?xml version="1.0" encoding="utf-8"?>
<!-- Generator: Adobe Illustrator 25.3.0, SVG Export Plug-In . SVG Version: 6.00 Build 0)  -->
<svg version="1.1" id="Layer_1" xmlns="http://www.w3.org/2000/svg" xmlns:xlink="http://www.w3.org/1999/xlink" x="0px" y="0px"
	 viewBox="0 0 120 70" style="enable-background:new 0 0 120 70;" xml:space="preserve">
<style type="text/css">
	.st0{fill:#383838;}
</style>
<g>
	<polygon class="st0" points="23.39,16.62 25.08,16.62 25.08,24.73 29.14,24.73 29.14,26.29 23.39,26.29 	"/>
	<path class="st0" d="M31.26,23.59c0.11,0.96,0.83,1.55,1.74,1.55c0.8,0,1.33-0.38,1.73-0.88l1.17,0.88
		c-0.76,0.95-1.71,1.32-2.74,1.32c-1.96,0-3.52-1.38-3.52-3.44c0-2.07,1.57-3.44,3.52-3.44c1.81,0,3.03,1.28,3.03,3.57v0.45H31.26z
		 M34.58,22.35c-0.01-0.95-0.63-1.56-1.64-1.56c-0.96,0-1.55,0.62-1.68,1.56H34.58z"/>
	<path class="st0" d="M42.57,25.3h-0.02c-0.47,0.8-1.32,1.15-2.22,1.15c-2,0-3.2-1.5-3.2-3.44c0-1.94,1.28-3.44,3.12-3.44
		c1.22,0,1.87,0.58,2.2,1h0.04v-4.6h1.62v10.32h-1.54V25.3z M40.64,24.97c1.19,0,1.9-0.94,1.9-1.96c0-1.02-0.71-1.97-1.9-1.97
		c-1.19,0-1.9,0.94-1.9,1.97C38.74,24.03,39.45,24.97,40.64,24.97"/>
	<path class="st0" d="M46.97,23.59c0.11,0.96,0.84,1.55,1.74,1.55c0.81,0,1.33-0.38,1.74-0.88l1.16,0.88
		c-0.76,0.95-1.71,1.32-2.74,1.32c-1.96,0-3.52-1.38-3.52-3.44c0-2.07,1.57-3.44,3.52-3.44c1.81,0,3.03,1.28,3.03,3.57v0.45H46.97z
		 M50.29,22.35c-0.02-0.95-0.64-1.56-1.65-1.56c-0.96,0-1.55,0.62-1.68,1.56H50.29z"/>
	<path class="st0" d="M56.6,21.55c-0.31-0.44-0.71-0.67-1.27-0.67c-0.43,0-0.94,0.2-0.94,0.69c0,1.18,3.49,0.22,3.49,2.78
		c0,1.55-1.47,2.1-2.8,2.1c-0.99,0-1.85-0.26-2.51-1.01l1.07-1.02c0.42,0.46,0.86,0.8,1.54,0.8c0.47,0,1.07-0.23,1.07-0.75
		c0-1.35-3.49-0.28-3.49-2.78c0-1.46,1.3-2.12,2.61-2.12c0.86,0,1.78,0.27,2.31,1L56.6,21.55z"/>
	<path class="st0" d="M58.8,19.73h1.54v1.03h0.02c0.28-0.62,0.91-1.19,1.98-1.19c1,0,1.69,0.4,2.02,1.22
		c0.48-0.83,1.17-1.22,2.13-1.22c1.73,0,2.34,1.25,2.34,2.81v3.91h-1.61v-3.71c0-0.82-0.25-1.53-1.2-1.53
		c-1.01,0-1.38,0.84-1.38,1.69v3.55h-1.63v-3.91c0-0.81-0.32-1.34-1.1-1.34c-1.07,0-1.49,0.79-1.49,1.67v3.57H58.8V19.73z"/>
	<path class="st0" d="M74.38,25.38h-0.03c-0.46,0.74-1.21,1.06-2.08,1.06c-1.2,0-2.36-0.66-2.36-1.97c0-2.13,2.46-2.28,4.07-2.28
		h0.4v-0.18c0-0.8-0.62-1.23-1.47-1.23c-0.67,0-1.3,0.28-1.73,0.68l-0.85-0.86c0.72-0.73,1.73-1.05,2.75-1.05
		c2.77,0,2.77,2.02,2.77,2.95v3.77h-1.46V25.38z M74.29,23.36h-0.34c-0.89,0-2.43,0.06-2.43,1.01c0,0.6,0.61,0.85,1.14,0.85
		c1.1,0,1.63-0.59,1.63-1.5V23.36z"/>
	<path class="st0" d="M36.72,48.59h-1.78v-2.13h-0.05c-1.16,1.72-3.24,2.46-4.92,2.46c-3.94,0-6.72-2.87-6.72-6.72
		c0-3.86,2.78-6.72,6.72-6.72c1.68,0,3.76,0.74,4.92,2.46h0.05V27.93h1.78V48.59z M29.97,47.28c2.92,0,5.05-2.21,5.05-5.08
		c0-2.87-2.13-5.09-5.05-5.09c-2.94,0-4.78,2.22-4.78,5.09C25.19,45.07,27.03,47.28,29.97,47.28"/>
	<path class="st0" d="M41.19,42.7c0.22,2.57,2.13,4.59,4.65,4.59c1.89,0,3.35-1.06,4.05-2.21l1.38,1.15
		c-1.49,1.91-3.35,2.71-5.43,2.71c-3.75,0-6.53-2.87-6.53-6.72c0-3.86,2.78-6.72,6.37-6.72c3.83,0.02,6.05,2.89,6.05,6.39v0.82
		H41.19z M49.78,41.22c0-2.43-1.54-4.1-4.11-4.1c-2.32,0-4.43,1.99-4.43,4.1H49.78z"/>
	<path class="st0" d="M60.99,38.84c-0.54-1.04-1.43-1.72-2.73-1.72c-1.24,0-2.62,0.55-2.62,1.91c0,1.2,0.84,1.64,2.49,2.02
		l1.81,0.44c1.76,0.41,3.08,1.7,3.08,3.5c0,2.79-2.46,3.94-4.92,3.94c-1.92,0-3.67-0.68-4.86-2.49l1.54-1.07
		c0.73,1.15,1.84,1.91,3.32,1.91c1.46,0,2.97-0.66,2.97-2.13c0-1.29-1.08-1.72-2.4-2.05l-1.73-0.41c-0.87-0.22-3.24-0.93-3.24-3.36
		c0-2.65,2.3-3.85,4.67-3.85c1.76,0,3.4,0.62,4.22,2.3L60.99,38.84z"/>
	<path class="st0" d="M66.42,32.2c-0.65,0-1.3-0.55-1.3-1.31c0-0.77,0.65-1.31,1.3-1.31c0.65,0,1.3,0.54,1.3,1.31
		C67.72,31.65,67.07,32.2,66.42,32.2 M67.32,48.59h-1.78V35.81h1.78V48.59z"/>
	<path class="st0" d="M71.91,51.17c1.05,1.42,2.8,2.35,4.83,2.35c3.62,0,4.92-2.27,4.92-5.03v-2.3h-0.05
		c-1.13,1.72-2.89,2.4-4.73,2.4c-3.65,0-6.59-2.76-6.59-6.51c0-3.71,2.71-6.61,6.43-6.61c1.51,0,3.43,0.46,4.89,2.46h0.05v-2.13
		h1.78v12.68c0,2.79-1.11,6.66-6.78,6.66c-2.51,0-4.46-0.82-6.07-2.57L71.91,51.17z M76.93,46.96c2.59,0,4.89-1.97,4.78-4.92
		c0-2.68-1.81-4.92-4.78-4.92c-2.65,0-4.7,2.24-4.7,4.92C72.23,44.72,74.28,46.96,76.93,46.96"/>
	<path class="st0" d="M88.47,35.81c0.08,0.68,0.08,1.37,0.08,2.05h0.05c0.78-1.39,2.57-2.38,4.24-2.38c3.22,0,4.76,1.83,4.76,5v8.12
		h-1.79v-7.08c0-2.84-0.78-4.4-3.43-4.4c-0.38,0-3.83,0.25-3.83,4.92v6.56h-1.79v-9.98c0-0.68-0.08-1.88-0.13-2.81H88.47z"/>
</g>
</svg>
