<?xml version="1.0" encoding="utf-8"?>
<!-- Generator: Adobe Illustrator 25.3.0, SVG Export Plug-In . SVG Version: 6.00 Build 0)  -->
<svg version="1.1" id="Layer_1" xmlns="http://www.w3.org/2000/svg" xmlns:xlink="http://www.w3.org/1999/xlink" x="0px" y="0px"
	 viewBox="0 0 120 70" style="enable-background:new 0 0 120 70;" xml:space="preserve">
<style type="text/css">
	.st0{fill:#383838;}
</style>
<g>
	<polygon class="st0" points="23.86,12.65 26.92,12.65 26.92,23.85 32.11,23.85 32.11,26.72 23.86,26.72 	"/>
	<path class="st0" d="M41.68,25.06c-0.95,1.2-2.5,1.9-4.03,1.9c-2.95,0-5.3-1.98-5.3-5.06c0-3.08,2.36-5.08,5.3-5.08
		c2.75,0,4.48,1.99,4.48,5.08v0.93H35.3c0.24,1.14,1.08,1.87,2.22,1.87c0.96,0,1.61-0.49,2.11-1.17L41.68,25.06z M39.18,20.79
		c0.02-0.99-0.74-1.83-1.8-1.83c-1.3,0-2.01,0.9-2.08,1.83H39.18z"/>
	<path class="st0" d="M52.96,26.72h-2.7v-1.27H50.2c-0.45,0.7-1.58,1.51-2.92,1.51c-2.83,0-4.7-2.06-4.7-4.99
		c0-2.68,1.65-5.15,4.36-5.15c1.22,0,2.36,0.34,3.03,1.27h0.05v-5.44h2.94V26.72z M47.89,19.45c-1.48,0-2.36,0.99-2.36,2.45
		c0,1.44,0.88,2.44,2.36,2.44c1.47,0,2.36-1,2.36-2.44C50.25,20.44,49.36,19.45,47.89,19.45"/>
	<path class="st0" d="M62.78,25.06c-0.94,1.2-2.49,1.9-4.02,1.9c-2.95,0-5.31-1.98-5.31-5.06c0-3.08,2.35-5.08,5.31-5.08
		c2.75,0,4.48,1.99,4.48,5.08v0.93h-6.84c0.24,1.14,1.08,1.87,2.22,1.87c0.96,0,1.61-0.49,2.1-1.17L62.78,25.06z M60.29,20.79
		c0.01-0.99-0.75-1.83-1.81-1.83c-1.3,0-2.01,0.9-2.09,1.83H60.29z"/>
	<path class="st0" d="M69.45,19.9c-0.43-0.53-1.01-0.81-1.72-0.81c-0.49,0-1.08,0.21-1.08,0.79c0,1.43,4.97,0.22,4.97,3.9
		c0,2.47-2.36,3.18-4.4,3.18c-1.34,0-2.81-0.34-3.75-1.31l1.78-2.01c0.55,0.68,1.2,1.05,2.08,1.05c0.67,0,1.34-0.17,1.34-0.69
		c0-1.56-4.97-0.24-4.97-3.92c0-2.27,2.01-3.27,4.01-3.27c1.25,0,2.65,0.32,3.53,1.27L69.45,19.9z"/>
	<path class="st0" d="M72.15,17.06h2.83v1.31h0.04c0.4-0.76,1.36-1.56,2.79-1.56c1.34,0,2.44,0.56,2.95,1.73
		c0.68-1.23,1.61-1.73,3.02-1.73c2.59,0,3.38,1.85,3.38,4.2v5.7h-2.94v-5.63c0-0.89-0.34-1.65-1.3-1.65c-1.35,0-1.78,0.97-1.78,2.16
		v5.11h-2.95v-5.11c0-0.71,0.04-2.16-1.32-2.16c-1.53,0-1.76,1.2-1.76,2.47v4.81h-2.95V17.06z"/>
	<path class="st0" d="M94.16,25.5h-0.04c-0.65,1.04-1.83,1.46-3.03,1.46c-1.78,0-3.4-1.03-3.4-2.98c0-3.34,4.01-3.4,6.47-3.4
		c0-1.05-0.86-1.73-1.89-1.73c-0.96,0-1.77,0.44-2.4,1.15l-1.57-1.62c1.08-1.04,2.65-1.56,4.21-1.56c3.44,0,4.36,1.77,4.36,5v4.91
		h-2.71V25.5z M93.43,22.49c-0.9,0-2.9,0.08-2.9,1.39c0,0.72,0.74,1.06,1.4,1.06c1.15,0,2.24-0.61,2.24-1.82v-0.63H93.43z"/>
	<path class="st0" d="M56.68,55.76c1.52-1.45,3.18-2.57,4.98-3.38c0.85-1.42,1.3-3.19,1.3-5.2c0.02-2.61-0.79-4.88-2.27-6.38
		c-1.21-1.23-2.78-1.88-4.55-1.88c-2.01,0-3.7,0.72-4.85,2.06v-8.9h-3.53v15.41c0,4.53,1.95,8.34,7.98,8.34
		C56.06,55.82,56.38,55.8,56.68,55.76 M51.42,49.82c-0.06-0.29-0.11-0.61-0.11-0.92v-2.77c0-0.34,0.06-0.65,0.12-0.92l0.03-0.13
		c0.5-1.87,2.04-3.13,3.83-3.13c2.85,0,4.13,2.67,4.13,5.32c0,3.4-1.62,5.51-4.22,5.51C53.39,52.79,51.92,51.62,51.42,49.82"/>
	<path class="st0" d="M82.79,41.24c-1.4-1.52-3.34-2.32-5.59-2.32c-2.21,0-4.21,0.81-5.64,2.28c-1.51,1.55-2.31,3.73-2.31,6.31
		c0,1.22,0.2,2.35,0.56,3.35c1.47,0.04,2.93,0.27,4.35,0.65c-0.82-0.98-1.31-2.42-1.31-4.1c0-2.78,1.33-5.58,4.29-5.58
		c3.29,0,4.16,3.61,4.16,5.51c0,2-0.7,3.64-1.78,4.64c-1.06,0.98-2.57,1.22-3.54,1.29c-5.47,0.39-9.96-1.16-15.77,1.66
		c5.25-3.25,9.62-2.13,15.01-2.39c-8.2-2.74-15.72,0.31-20.21,6.09c8.54-5.07,14.64-3.07,20.94-2.85c2.12,0.07,4.81-0.49,6.42-2.02
		c1.64-1.56,2.54-3.8,2.54-6.52C84.92,44.83,84.19,42.75,82.79,41.24"/>
	<path class="st0" d="M67.89,50.89V39.27h-3.56v12.18C65.46,51.16,66.65,50.97,67.89,50.89"/>
	<path class="st0" d="M66.11,33.19c-1.21,0-2.13,0.93-2.13,2.15c0,1.21,0.89,2.12,2.07,2.12c0.64,0,1.21-0.23,1.61-0.64
		c0.37-0.39,0.57-0.92,0.55-1.49C68.2,34.09,67.32,33.19,66.11,33.19"/>
	<polygon class="st0" points="34.9,43.72 34.9,35.08 31.66,35.08 31.66,43.72 23.13,43.72 23.13,47 31.66,47 31.66,55.64 
		34.9,55.64 34.9,47 43.44,47 43.44,43.72 	"/>
</g>
</svg>
